<svg version="1.1" preserveAspectRatio="none" xmlns="http://www.w3.org/2000/svg" width="500" height="500" viewBox="0 0 500 500"><rect width="100%" height="100%" fill="#F3F3F3" fill-opacity="1"/><svg viewBox="128.2155 180.0968 347.3377 259.0959" width="333" height="248.40071981820574" x="83.5px" y="125.7996px" xmlns="http://www.w3.org/2000/svg" xmlns:xlink="http://www.w3.org/1999/xlink" preserveAspectRatio="none"><defs></defs><style>.companyName {fill:#333258;fill-opacity:1;}.icon1 {fill:#333258;fill-opacity:1;}.icon2 {fill:#F36958;fill-opacity:1;}.icon3 {fill:#8C94CC;fill-opacity:1;}.icon3-str {stroke:#8C94CC;stroke-opacity:1;}.text {fill:#333258;fill-opacity:1;}</style><g opacity="1" transform="rotate(0 193.4586 421.7926)">
<svg width="216.8515" height="17.4001" x="193.4586" y="421.7926" version="1.1" preserveAspectRatio="none" viewBox="1.7578 -31.6797 441.07030000000003 35.3906">
  <g transform="matrix(1 0 0 1 0 0)" class="text"><path id="id-6izo4zJp12" d="M5.39-10.94L3.98-12.70Q6.17-13.63 8.52-15.21Q10.86-16.80 12.99-18.77Q15.12-20.74 16.48-23.13Q17.85-25.51 17.85-27.66L17.85-27.66L17.85-29.61L20.23-29.61L20.23-27.66Q20.23-25.47 21.66-23.09Q23.09-20.70 25.23-18.73Q27.38-16.76 29.69-15.21Q31.99-13.67 34.02-12.81L34.02-12.81L32.66-11.05Q28.87-12.70 24.73-16.19Q20.59-19.69 19.02-23.24L19.02-23.24Q17.58-19.80 13.54-16.31Q9.49-12.81 5.39-10.94L5.39-10.94ZM36.17-1.13L1.76-1.13L1.76-3.20L36.17-3.20L36.17-1.13Z M62.36-4.02L46.73-4.02L46.73-28.05L62.36-28.05L62.36-4.02ZM49.08-25.98L49.08-6.09L60.05-6.09L60.05-25.98L49.08-25.98ZM72.75 3.48L70.37 3.48L70.37-31.68L72.75-31.68L72.75-16.68L78.92-16.68L78.92-14.41L72.75-14.41L72.75 3.48Z M116.09-9.80L91.40-9.80L91.40-28.63L115.85-28.63L115.85-26.56L93.86-26.56L93.86-20.23L115.54-20.23L115.54-18.24L93.86-18.24L93.86-11.88L116.09-11.88L116.09-9.80ZM120.42-0.66L86.01-0.66L86.01-2.73L120.42-2.73L120.42-0.66Z M145.30-1.80L143.62-3.40Q150.38-7.54 154.55-13.67Q158.73-19.80 158.85-25.86L158.85-25.86L145.34-25.86L145.34-28.05L161.35-28.05Q161.31-19.88 156.94-13.20Q152.56-6.52 145.30-1.80L145.30-1.80ZM172.02 3.48L169.63 3.48L169.63-31.68L172.02-31.68L172.02 3.48Z M214.02-16.29L189.41-16.29L189.41-24.38L210.90-24.38L210.90-28.83L189.14-28.83L189.14-30.74L213.24-30.74L213.24-22.66L191.76-22.66L191.76-18.20L214.02-18.20L214.02-16.29ZM218.44-9.80L184.06-9.80L184.06-11.68L200.16-11.68L200.16-16.68L202.50-16.68L202.50-11.68L218.44-11.68L218.44-9.80ZM210.51-3.98L188.71-3.98L188.71-5.90L212.89-5.90L212.89 3.71L210.51 3.71L210.51-3.98Z M245.91-27.27L230.17-27.27L230.17-29.26L248.26-29.26Q248.26-22.89 246.62-16.56L246.62-16.56L244.31-16.56Q245.91-22.54 245.91-27.27L245.91-27.27ZM231.07-11.02L227.16-11.02L227.16-13.05L231.11-13.05Q245.45-13.05 252.36-13.91L252.36-13.91L252.36-11.95Q244.74-11.02 231.07-11.02L231.07-11.02ZM238.30-12.27L235.99-12.27L235.99-21.99L238.30-21.99L238.30-12.27ZM256.07-5.31L253.77-5.31L253.77-31.68L256.07-31.68L256.07-19.14L261.23-19.14L261.23-17.11L256.07-17.11L256.07-5.31ZM257.44 2.27L233.34 2.27L233.34-7.70L235.68-7.70L235.68 0.16L257.44 0.16L257.44 2.27Z M272.84-3.36L271.87-3.36L271.87-16.99L285.81-16.99L285.81-26.25L271.59-26.25L271.59-28.32L288.08-28.32L288.08-14.96L274.13-14.96L274.13-5.39L275.19-5.39Q283.23-5.39 292.88-6.56L292.88-6.56L292.88-4.65Q283.31-3.36 272.84-3.36L272.84-3.36ZM299.02 3.48L296.59 3.48L296.59-31.68L299.02-31.68L299.02 3.48Z M355.65-21.09L327.29-21.09L327.29-22.97L333.30-22.97L333.30-29.06L328.11-29.06L328.11-30.98L354.83-30.98L354.83-29.06L349.63-29.06L349.63-22.97L355.65-22.97L355.65-21.09ZM335.57-29.06L335.57-22.97L347.37-22.97L347.37-29.06L335.57-29.06ZM358.58-15.23L324.20-15.23L324.20-17.23L358.58-17.23L358.58-15.23ZM354.63 2.77L329.52 2.77L329.52-5.27L351.12-5.27L351.12-9.38L329.16-9.38L329.16-11.33L353.50-11.33L353.50-3.44L331.86-3.44L331.86 0.78L354.63 0.78L354.63 2.77Z M370.27-10.55L369.22-10.55L369.22-21.02L381.02-21.02L381.02-27.46L369.02-27.46L369.02-29.41L383.32-29.41L383.32-19.14L371.48-19.14L371.48-12.46L371.99-12.46Q378.20-12.46 385.74-13.40L385.74-13.40L385.74-11.56Q377.66-10.55 370.27-10.55L370.27-10.55ZM389.77-8.32L387.73-8.32L387.73-31.17L389.77-31.17L389.77-20.66L395.43-20.66L395.43-31.68L397.66-31.68L397.66-5.86L395.43-5.86L395.43-18.55L389.77-18.55L389.77-8.32ZM372.77 3.24L371.64 1.33Q374.49 0.63 377.36-0.70Q380.23-2.03 382.30-3.85Q384.38-5.66 384.38-7.30L384.38-7.30L384.38-8.32L386.72-8.32L386.72-7.34Q386.72-4.84 390.84-2.29Q394.96 0.27 399.49 1.33L399.49 1.33L398.36 3.24Q394.61 2.30 390.86 0.21Q387.11-1.88 385.59-4.18L385.59-4.18Q384.02-1.88 380.33 0.20Q376.64 2.27 372.77 3.24L372.77 3.24Z M439.98-19.34L411.50-19.34L411.50-21.25L417.52-21.25L417.52-28.79L412.32-28.79L412.32-30.74L439.12-30.74L439.12-28.79L433.96-28.79L433.96-21.25L439.98-21.25L439.98-19.34ZM419.78-28.79L419.78-21.25L431.66-21.25L431.66-28.79L419.78-28.79ZM442.83-12.38L408.45-12.38L408.45-14.34L424.55-14.34L424.55-20.63L426.89-20.63L426.89-14.34L442.83-14.34L442.83-12.38ZM437.52 2.77L413.88 2.77L413.88-8.01L437.52-8.01L437.52 2.77ZM416.23-6.02L416.23 0.78L435.17 0.78L435.17-6.02L416.23-6.02Z"/></g>
</svg>
</g><g opacity="1" transform="rotate(0 128.2155 339.7926)">
<svg width="347.3377" height="60" x="128.2155" y="339.7926" version="1.1" preserveAspectRatio="none" viewBox="4.8 -31.2 230.39999999999998 39.8">
  <g transform="matrix(1 0 0 1 0 0)" class="companyName"><path id="id-D6z1nYkh7" d="M26.20-1.40L29.20-1.40L29.20-30.60L26.20-30.60L26.20-1.40ZM7.92-10.96L19.92-28L17.48-29.76L4.80-29.76L4.80-26.96L15.68-26.96L5.52-12.56L7.92-10.96Z M39.60-8.08L72.40-8.08L72.40-10.84L57.48-10.84L57.48-15.68L64.52-15.68L64.52-18.24L50.88-18.24L50.88-21.76L64.12-21.76L64.12-30.20L47.88-30.20L47.88-27.64L61.12-27.64L61.12-24.20L47.88-24.20L47.88-18.40Q47.88-17.28 48.68-16.48Q49.48-15.68 50.60-15.68L50.60-15.68L54.52-15.68L54.52-10.84L39.60-10.84L39.60-8.08ZM61.12 7.80L64.12 7.80L64.12-4.24L47.48-4.24L47.48-1.48L61.12-1.48L61.12 7.80Z M97.24-22.52L97.24-22.52Q97.24-23.72 96.82-24.84Q96.40-25.96 95.60-26.88Q94.80-27.80 93.68-28.48Q92.56-29.16 91.20-29.52L91.20-29.52L91.20-31.20L88.24-31.20L88.24-29.52Q86.84-29.16 85.74-28.48Q84.64-27.80 83.84-26.88Q83.04-25.96 82.62-24.84Q82.20-23.72 82.20-22.52L82.20-22.52Q82.20-21.04 82.80-19.74Q83.40-18.44 84.42-17.46Q85.44-16.48 86.82-15.92Q88.20-15.36 89.72-15.36L89.72-15.36Q91.24-15.36 92.62-15.92Q94-16.48 95.02-17.46Q96.04-18.44 96.64-19.74Q97.24-21.04 97.24-22.52ZM94.24-22.52L94.24-22.52Q94.24-21.56 93.86-20.74Q93.48-19.92 92.84-19.32Q92.20-18.72 91.38-18.40Q90.56-18.08 89.72-18.08L89.72-18.08Q88.88-18.08 88.06-18.40Q87.24-18.72 86.60-19.32Q85.96-19.92 85.58-20.74Q85.20-21.56 85.20-22.52L85.20-22.52Q85.20-23.48 85.58-24.30Q85.96-25.12 86.60-25.72Q87.24-26.32 88.06-26.64Q88.88-26.96 89.72-26.96L89.72-26.96Q90.56-26.96 91.38-26.64Q92.20-26.32 92.84-25.72Q93.48-25.12 93.86-24.30Q94.24-23.48 94.24-22.52ZM77.20-7.44L103.40-7.44L103.40-1.40L106.40-1.40L106.40-30.56L103.40-30.56L103.40-10.20L77.20-10.20L77.20-7.44Z M150.40-16.76L152.52-18.76L144.32-27.04L150.92-27.04L150.92-29.80L134.68-29.80L134.68-27.04L141.28-27.04L133.08-18.76L135.20-16.76L142.80-24.52L150.40-16.76ZM126.40-10.16L159.20-10.16L159.20-12.92L126.40-12.92L126.40-10.16ZM137.40 8.60L151.32 8.60L151.32 6.04L137.68 6.04L137.68 2.56L150.92 2.56L150.92-5.92L134.68-5.92L134.68-3.36L147.92-3.36L147.92 0.12L134.68 0.12L134.68 5.88Q134.68 7 135.48 7.80Q136.28 8.60 137.40 8.60L137.40 8.60Z M188.96-1.40L192-1.40L192-30.60L188.96-30.60L188.96-21.64L180.64-21.64L180.64-18.88L188.96-18.88L188.96-1.40ZM171.12-10.96L183.12-28L180.68-29.76L168-29.76L168-26.96L178.88-26.96L168.72-12.56L171.12-10.96Z M226.48-22.76L226.48-22.76Q226.48-23.96 226.04-25.04Q225.60-26.12 224.80-27Q224-27.88 222.86-28.54Q221.72-29.20 220.28-29.56L220.28-29.56L220.28-31.20L217.32-31.20L217.32-29.56Q215.92-29.20 214.78-28.54Q213.64-27.88 212.82-27Q212-26.12 211.56-25.04Q211.12-23.96 211.12-22.76L211.12-22.76Q211.12-21.36 211.72-20.10Q212.32-18.84 213.38-17.90Q214.44-16.96 215.84-16.40Q217.24-15.84 218.80-15.84L218.80-15.84Q220.40-15.84 221.80-16.40Q223.20-16.96 224.24-17.90Q225.28-18.84 225.88-20.10Q226.48-21.36 226.48-22.76ZM223.48-22.76L223.48-22.76Q223.48-21.80 223.10-21.02Q222.72-20.24 222.08-19.68Q221.44-19.12 220.60-18.82Q219.76-18.52 218.80-18.52L218.80-18.52Q217.88-18.52 217.04-18.82Q216.20-19.12 215.54-19.68Q214.88-20.24 214.50-21.02Q214.12-21.80 214.12-22.76L214.12-22.76Q214.12-23.72 214.52-24.50Q214.92-25.28 215.58-25.84Q216.24-26.40 217.08-26.70Q217.92-27 218.80-27L218.80-27Q219.76-27 220.60-26.70Q221.44-26.40 222.08-25.84Q222.72-25.28 223.10-24.50Q223.48-23.72 223.48-22.76ZM226.92 5.08L226.92 5.08L226.92-5.04L220.28-5.04L220.28-10.12L235.20-10.12L235.20-12.88L202.40-12.88L202.40-10.12L217.32-10.12L217.32-5.04L210.68-5.04L210.68 5.08Q210.68 6.20 211.48 7Q212.28 7.80 213.40 7.80L213.40 7.80L224.20 7.80Q225.32 7.80 226.12 7Q226.92 6.20 226.92 5.08ZM223.92-2.28L223.92 5.04L213.68 5.04L213.68-2.28L223.92-2.28Z"/></g>
</svg>
</g><g opacity="1" transform="rotate(0 253.2571 180.0968)">
<svg width="97.2545" height="119.6958" x="253.2571" y="180.0968" version="1.1" preserveAspectRatio="none" viewBox="34.99847412109375 20.000993728637695 130.00131225585938 159.99900817871094">
  <g transform="matrix(1 0 0 1 0 0)"><g><path d="M131.09 180a1.825 1.825 0 0 1-1.824-1.825v-31.309c-.006-.473-.066-12.25 7.776-22.49 3.163-4.132 5.341-8.115 6.659-12.181 3.586-11.057 8.639-38.533-21.804-54.805-.302-.154-32.797-16.485-57.242 5.941-4.649 4.266-7.923 9.543-9.468 15.258-1.494 5.524-1.879 11.459-1.141 17.637.093.771.227 1.53.362 2.292l.028.16c.415 2.354.959 8.468-2.938 14.395l-6.766 9.837c-.128.351-.326 1.151-.048 1.676.281.53 1.093.793 1.751.92.423.043 1.948.233 3.237.786a3.076 3.076 0 0 1 1.778 2.126 3.068 3.068 0 0 1-.655 2.68 1.804 1.804 0 0 0-.272.395c.067.067.205.182.469.325a3.105 3.105 0 0 1 1.214 4.299c-.224.382-.252.607-.246.658h.001c.006 0 .197.263 1.064.521 1.547.463 2.486 1.984 2.184 3.54-.321 1.647-1.181 7.239 1.158 10.033 1.017 1.213 2.586 1.788 4.713 1.773l7.93-.775c6.565-.644 12.638 3.91 13.789 10.364.751 4.201 1.131 9.566 1.131 15.944a1.824 1.824 0 1 1-3.648 0c0-6.164-.362-11.312-1.074-15.303-.819-4.594-5.134-7.835-9.846-7.373l-8.153.791c-3.282.014-5.885-.982-7.638-3.077-3.007-3.591-2.626-9.217-2.037-12.566-1.519-.541-2.516-1.395-2.97-2.542-.289-.733-.462-1.885.235-3.347-1.071-.694-1.71-1.569-1.898-2.606-.121-.666-.088-1.639.614-2.746a10.313 10.313 0 0 0-1.5-.273l-.162-.022c-2.681-.489-3.881-1.824-4.415-2.858-1.172-2.275-.093-4.72.034-4.992l.15-.262 6.853-9.962c3.156-4.801 2.71-9.799 2.369-11.723l-.027-.159a44.43 44.43 0 0 1-.392-2.494c-.794-6.646-.376-13.047 1.241-19.024 1.728-6.383 5.367-12.26 10.525-16.994 26.346-24.17 61.055-6.661 61.403-6.482 33.819 18.076 26.596 49.853 23.577 59.162-1.447 4.466-3.814 8.808-7.233 13.274-7.051 9.206-7.025 20.139-7.024 20.249v31.329A1.825 1.825 0 0 1 131.09 180z" data-color="1" class="icon1"></path><path d="M103.79 130.079a8.558 8.558 0 0 1-5.513-2.013 8.548 8.548 0 0 1-7.3 1.825 8.561 8.561 0 0 1-5.928-4.638 8.553 8.553 0 0 1-7.411-1.305 8.567 8.567 0 0 1-3.53-6.649c-2.58-.359-4.898-1.882-6.24-4.209s-1.5-5.097-.521-7.511a8.571 8.571 0 0 1-3.99-6.382 8.573 8.573 0 0 1 2.577-7.077 8.569 8.569 0 0 1-1.05-7.455 8.567 8.567 0 0 1 5.229-5.415 8.574 8.574 0 0 1 2.071-7.238 8.544 8.544 0 0 1 6.978-2.818 8.574 8.574 0 0 1 12.355-5.503 8.56 8.56 0 0 1 6.761-3.305 8.558 8.558 0 0 1 6.761 3.305 8.576 8.576 0 0 1 12.355 5.504 8.54 8.54 0 0 1 6.978 2.818 8.572 8.572 0 0 1 2.071 7.239 8.565 8.565 0 0 1 5.229 5.415 8.568 8.568 0 0 1-1.05 7.455 8.57 8.57 0 0 1 2.577 7.075 8.574 8.574 0 0 1-3.99 6.383 8.57 8.57 0 0 1-.523 7.512 8.563 8.563 0 0 1-6.239 4.209 8.57 8.57 0 0 1-3.532 6.65 8.551 8.551 0 0 1-7.41 1.304 8.558 8.558 0 0 1-7.715 4.824zm-5.513-7.855 1.49 2.114a4.934 4.934 0 0 0 5.052 1.983 4.922 4.922 0 0 0 3.808-3.868l.501-2.54 2.222 1.326a4.913 4.913 0 0 0 5.419-.244 4.923 4.923 0 0 0 1.909-5.083l-.574-2.523 2.567.306a4.896 4.896 0 0 0 4.854-2.429 4.928 4.928 0 0 0-.323-5.42l-1.55-2.072 2.472-.766a4.925 4.925 0 0 0 3.446-4.195 4.926 4.926 0 0 0-2.499-4.82l-2.258-1.262 1.946-1.704a4.93 4.93 0 0 0-2.8-8.622l-2.574-.234 1.084-2.349a4.929 4.929 0 0 0-6.062-6.736l-2.449.835.037-2.588a4.924 4.924 0 0 0-8.274-3.687l-1.898 1.759-1.019-2.379a4.924 4.924 0 0 0-9.058 0l-1.019 2.379-1.898-1.759a4.925 4.925 0 0 0-8.274 3.687l.037 2.588-2.449-.835a4.927 4.927 0 0 0-6.062 6.736l1.084 2.349-2.574.234a4.93 4.93 0 0 0-2.8 8.622l1.946 1.704-2.258 1.262a4.93 4.93 0 0 0-2.499 4.822 4.928 4.928 0 0 0 3.446 4.194l2.472.766-1.55 2.072a4.928 4.928 0 0 0 4.53 7.85l2.567-.306-.574 2.523a4.922 4.922 0 0 0 1.908 5.082 4.915 4.915 0 0 0 5.421.245l2.222-1.326.501 2.54a4.922 4.922 0 0 0 3.808 3.868 4.933 4.933 0 0 0 5.052-1.984l1.494-2.115z" data-color="1" class="icon1"></path><path d="M79.476 105.126a1.825 1.825 0 0 1 0-3.65 4.466 4.466 0 0 0 4.459-4.463c0-.672-.151-1.325-.45-1.942l-1.653-3.414 3.697.839a4.517 4.517 0 0 0 2.844-.238c1.534-.642 2.69-1.991 3.013-3.518a4.811 4.811 0 0 0-.204-2.704l-.952-2.58 3.086.145c.238 0 .472-.009.704-.031 1.987-.184 3.458-1.456 3.941-3.403.39-1.571.077-3.908-2.089-5.325-3.526-2.309-5.469-5.23-5.623-8.447a1.825 1.825 0 1 1 3.644-.174c.095 2.029 1.433 3.902 3.975 5.566 3.099 2.027 4.526 5.661 3.633 9.259-.799 3.219-3.211 5.482-6.382 6.054.06.796.006 1.597-.165 2.399-.577 2.721-2.51 5.012-5.173 6.127a8.277 8.277 0 0 1-2.237.592c.026.264.038.53.038.797 0 4.471-3.637 8.111-8.106 8.111z" data-color="1" class="icon1"></path><path d="M93.316 87.25c-.202 0-.407-.034-.608-.105-.272-.097-6.7-2.441-9.151-9.371a1.824 1.824 0 1 1 3.439-1.218c1.876 5.306 6.877 7.129 6.928 7.147a1.826 1.826 0 0 1-.608 3.547z" data-color="1" class="icon1"></path><path d="M104.089 83.13c-1.57 0-3.211-.279-4.917-.838a1.825 1.825 0 0 1 1.137-3.468c2.915.956 5.518.855 7.742-.296 4.291-2.222 6.008-7.649 6.025-7.703a1.826 1.826 0 0 1 2.277-1.209 1.822 1.822 0 0 1 1.212 2.272c-.085.282-2.153 6.921-7.811 9.868a12.12 12.12 0 0 1-5.665 1.374z" data-color="1" class="icon1"></path><path d="M97.455 119.265a1.822 1.822 0 0 1-1.712-1.198c-2.428-6.625.554-12.393 2.549-15.242 1.228-1.757 2.698-3.166 4.368-4.185 5.689-3.474 11.701-2.108 14.728-1.013 2.405-5.884 7.891-7.227 10.684-7.05a1.826 1.826 0 0 1 1.711 1.932c-.061 1.002-.888 1.784-1.92 1.711-.604-.024-6.014-.093-7.585 6.302l-.561 2.285-2.071-1.112c-.066-.034-7.032-3.64-13.084.061-1.238.756-2.342 1.82-3.281 3.163-1.938 2.768-3.877 7.077-2.111 11.892a1.826 1.826 0 0 1-1.715 2.454z" data-color="1" class="icon1"></path><path d="M109.09 100.169a1.825 1.825 0 0 1-1.822-1.78c-.41-16.617 16.508-19.921 16.679-19.953a1.817 1.817 0 0 1 2.123 1.465 1.824 1.824 0 0 1-1.462 2.124c-.604.115-14.026 2.816-13.692 16.274a1.826 1.826 0 0 1-1.778 1.869l-.048.001z" data-color="1" class="icon1"></path><path d="M76.095 117.329a1.824 1.824 0 0 1-1.419-2.966c.091-.113 9.22-11.197 22.995-6.418a1.824 1.824 0 0 1-1.194 3.448c-11.306-3.926-18.657 4.886-18.964 5.263a1.827 1.827 0 0 1-1.418.673z" data-color="1" class="icon1"></path><path d="M110.415 124.632c-.353 0-.709-.102-1.023-.315-.187-.127-4.569-3.171-4.59-9.081a7.71 7.71 0 0 1 3.945-6.75c2.386-1.337 5.187-1.284 7.488.141.855.529 1.178 1.687.651 2.543-.524.858-1.59 1.165-2.446.637l-.135-.085c-1.165-.72-2.546-.741-3.777-.052a4.01 4.01 0 0 0-2.079 3.553c.014 4.005 2.962 6.054 2.992 6.074a1.826 1.826 0 0 1-1.026 3.335z" data-color="1" class="icon1"></path><path d="M101.148 104.025a1.824 1.824 0 0 1-1.815-1.669c-.658-7.698-7.492-8.503-7.783-8.534a1.828 1.828 0 0 1-1.628-1.996c.1-.999.965-1.727 1.98-1.637 3.505.33 10.327 3.233 11.064 11.856a1.824 1.824 0 0 1-1.661 1.974c-.053.003-.106.006-.157.006z" data-color="1" class="icon1"></path><path d="M85.124 96.101c-.261 0-.524-.056-.776-.175-.171-.081-4.21-2.012-7.009-5.494a1.823 1.823 0 1 1 2.841-2.288c2.279 2.836 5.69 4.465 5.724 4.481.91.43 1.301 1.518.872 2.429a1.827 1.827 0 0 1-1.652 1.047z" data-color="1" class="icon1"></path><path d="M99.89 37.92a1.825 1.825 0 0 1-1.824-1.825v-14.27a1.824 1.824 0 1 1 3.648 0v14.27a1.825 1.825 0 0 1-1.824 1.825z" data-color="1" class="icon1"></path><path d="M80.365 41.365c-.745 0-1.445-.46-1.714-1.201l-5.246-14.421a1.823 1.823 0 1 1 3.428-1.248l5.246 14.421a1.825 1.825 0 0 1-1.714 2.449z" data-color="1" class="icon1"></path><path d="M62.083 50.173a1.823 1.823 0 0 1-1.399-.652l-9.597-11.446a1.825 1.825 0 0 1 .225-2.57 1.823 1.823 0 0 1 2.57.225l9.597 11.446a1.825 1.825 0 0 1-1.396 2.997z" data-color="1" class="icon1"></path><path d="M50.405 62.351c-.309 0-.623-.078-.91-.244L35.912 54.26a1.824 1.824 0 1 1 1.824-3.161l13.583 7.847a1.827 1.827 0 0 1 .668 2.493 1.826 1.826 0 0 1-1.582.912z" data-color="1" class="icon1"></path><path d="M151.552 65.37a1.825 1.825 0 0 1-.913-3.405l11.625-6.716a1.823 1.823 0 0 1 2.492.668 1.827 1.827 0 0 1-.668 2.493l-11.625 6.716a1.819 1.819 0 0 1-.911.244z" data-color="1" class="icon1"></path><path d="M138.875 51.435a1.827 1.827 0 0 1-1.396-2.998l9.303-11.094a1.823 1.823 0 0 1 2.57-.225c.771.648.872 1.798.225 2.571l-9.303 11.094a1.817 1.817 0 0 1-1.399.652z" data-color="1" class="icon1"></path><path d="M119.415 42.477a1.825 1.825 0 0 1-1.714-2.449l5.214-14.336a1.823 1.823 0 1 1 3.428 1.248l-5.214 14.336a1.825 1.825 0 0 1-1.714 1.201z" data-color="1" class="icon1"></path></g></g>
</svg>
</g></svg></svg>